<?xml version="1.0" encoding="UTF-8"?>

<svg version="1.2" baseProfile="tiny" viewBox="0 0 36200 9200" preserveAspectRatio="xMidYMid" fill-rule="evenodd" clip-path="url(#presentation_clip_path)" stroke-width="28.222" stroke-linejoin="round" xmlns="http://www.w3.org/2000/svg" xmlns:xlink="http://www.w3.org/1999/xlink" xmlns:draw="urn:oasis:names:tc:opendocument:xmlns:drawing:1.0" xmlns:presentation="urn:oasis:names:tc:opendocument:xmlns:presentation:1.0" xmlns:smil="urn:oasis:names:tc:opendocument:xmlns:smil-compatible:1.0" xmlns:anim="urn:oasis:names:tc:opendocument:xmlns:animation:1.0" xml:space="preserve">
 <defs>
  <clipPath id="presentation_clip_path" clipPathUnits="userSpaceOnUse">
   <rect x="0" y="0" width="36200" height="9200"/>
  </clipPath>
 </defs>
 <g id="id2" class="Master_Slide" clip-path="url(#presentation_clip_path)">
  <g id="bg-id2" visibility="visible" class="Background">
   <rect fill="none" stroke="none" x="0" y="0" width="36200" height="9200"/>
  </g>
  <g id="bo-id2" visibility="visible" class="BackgroundObjects"/>
 </g>
 <g id="id1" class="Slide" visibility="visible" clip-path="url(#presentation_clip_path)">
  <g class="com.sun.star.drawing.ClosedBezierShape">
   <g>
    <rect fill="none" stroke="none" x="308" y="3301" width="58" height="7"/>
   </g>
  </g>
  <g class="com.sun.star.drawing.ClosedBezierShape">
   <g>
    <rect fill="none" stroke="none" x="454" y="3289" width="61" height="5"/>
   </g>
  </g>
  <g class="com.sun.star.drawing.ClosedBezierShape">
   <g>
    <rect fill="none" stroke="none" x="166" y="3320" width="48" height="9"/>
   </g>
  </g>
  <g class="com.sun.star.drawing.ClosedBezierShape">
   <g>
    <rect fill="none" stroke="none" x="2154" y="59" width="147" height="38"/>
   </g>
  </g>
  <g class="com.sun.star.drawing.ClosedBezierShape">
   <g>
    <rect fill="none" stroke="none" x="600" y="3287" width="57" height="3"/>
   </g>
  </g>
  <g class="com.sun.star.drawing.ClosedBezierShape">
   <g>
    <rect fill="none" stroke="none" x="817" y="3294" width="21" height="3"/>
   </g>
  </g>
  <g class="com.sun.star.drawing.ClosedBezierShape">
   <g>
    <rect fill="none" stroke="none" x="1215" y="3350" width="39" height="9"/>
   </g>
  </g>
  <g class="com.sun.star.drawing.ClosedBezierShape">
   <g>
    <rect fill="none" stroke="none" x="1433" y="3404" width="44" height="14"/>
   </g>
  </g>
  <g class="com.sun.star.drawing.ClosedBezierShape">
   <g>
    <rect fill="none" stroke="none" x="1016" y="3315" width="49" height="8"/>
   </g>
  </g>
  <g class="com.sun.star.drawing.ClosedBezierShape">
   <g>
    <rect fill="none" stroke="none" x="9421" y="4506" width="6" height="5"/>
   </g>
  </g>
  <g class="com.sun.star.drawing.ClosedBezierShape">
   <g>
    <rect fill="none" stroke="none" x="1624" y="3467" width="47" height="18"/>
   </g>
  </g>
  <g class="com.sun.star.drawing.ClosedBezierShape">
   <g>
    <rect fill="none" stroke="none" x="1856" y="12" width="117" height="16"/>
   </g>
  </g>
  <g class="com.sun.star.drawing.ClosedBezierShape">
   <g>
    <rect fill="none" stroke="none" x="2006" y="32" width="144" height="28"/>
   </g>
  </g>
  <g class="com.sun.star.drawing.ClosedBezierShape">
   <g>
    <rect fill="none" stroke="none" x="3623" y="4389" width="348" height="1008"/>
   </g>
  </g>
  <g class="com.sun.star.drawing.ClosedBezierShape">
   <g>
    <rect fill="none" stroke="none" x="1702" y="0" width="90" height="8"/>
   </g>
  </g>
  <g class="com.sun.star.drawing.ClosedBezierShape">
   <g>
    <rect fill="none" stroke="none" x="2648" y="6333" width="94" height="7"/>
   </g>
  </g>
  <g class="com.sun.star.drawing.ClosedBezierShape">
   <g>
    <rect fill="none" stroke="none" x="2184" y="6302" width="72" height="13"/>
   </g>
  </g>
  <g class="com.sun.star.drawing.ClosedBezierShape">
   <g>
    <rect fill="none" stroke="none" x="2357" y="6326" width="69" height="9"/>
   </g>
  </g>
  <g class="com.sun.star.drawing.ClosedBezierShape">
   <g>
    <rect fill="none" stroke="none" x="3467" y="6038" width="116" height="75"/>
   </g>
  </g>
  <g class="com.sun.star.drawing.ClosedBezierShape">
   <g>
    <rect fill="none" stroke="none" x="2011" y="6262" width="74" height="20"/>
   </g>
  </g>
  <g class="com.sun.star.drawing.ClosedBezierShape">
   <g>
    <rect fill="none" stroke="none" x="1495" y="6065" width="67" height="33"/>
   </g>
  </g>
  <g class="com.sun.star.drawing.ClosedBezierShape">
   <g>
    <rect fill="none" stroke="none" x="1666" y="6144" width="71" height="30"/>
   </g>
  </g>
  <g class="com.sun.star.drawing.ClosedBezierShape">
   <g>
    <rect fill="none" stroke="none" x="1837" y="6211" width="74" height="24"/>
   </g>
  </g>
  <g class="com.sun.star.drawing.ClosedBezierShape">
   <g>
    <rect fill="none" stroke="none" x="3083" y="6248" width="80" height="25"/>
   </g>
  </g>
  <g class="com.sun.star.drawing.ClosedBezierShape">
   <g>
    <rect fill="none" stroke="none" x="2944" y="6287" width="82" height="18"/>
   </g>
  </g>
  <g class="com.sun.star.drawing.ClosedBezierShape">
   <g>
    <rect fill="none" stroke="none" x="3217" y="6198" width="79" height="33"/>
   </g>
  </g>
  <g class="com.sun.star.drawing.ClosedBezierShape">
   <g>
    <rect fill="none" stroke="none" x="2800" y="6316" width="86" height="13"/>
   </g>
  </g>
  <g class="com.sun.star.drawing.ClosedBezierShape">
   <g>
    <rect fill="none" stroke="none" x="2531" y="6338" width="63" height="3"/>
   </g>
  </g>
  <g class="com.sun.star.drawing.ClosedBezierShape">
   <g>
    <rect fill="none" stroke="none" x="3345" y="6134" width="84" height="43"/>
   </g>
  </g>
  <g class="com.sun.star.drawing.OpenBezierShape">
   <g>
    <path fill="none" stroke="rgb(255,255,255)" d="M 4369,6130 C 4375,6133 4379,6136 4383,6137"/>
   </g>
  </g>
  <g class="com.sun.star.drawing.OpenBezierShape">
   <g>
    <path fill="none" stroke="rgb(255,255,255)" d="M 4384,6136 C 4385,6137 4385,6137 4386,6139"/>
   </g>
  </g>
  <g class="Group">
   <g class="Group">
    <g class="com.sun.star.drawing.ClosedBezierShape">
     <g>
      <path fill="rgb(120,162,47)" stroke="none" d="M 1000,6604 L 1000,5246 1696,5246 1696,5378 C 1720,5563 1820,5716 1997,5836 2172,5956 2381,6016 2621,6016 2872,6016 3072,5972 3223,5884 3372,5798 3448,5677 3448,5520 3448,5371 3386,5260 3261,5189 3138,5118 2891,5053 2523,4994 1977,4901 1587,4752 1354,4547 1120,4340 1004,4074 1004,3746 1004,3415 1130,3139 1384,2917 1638,2695 1973,2583 2388,2583 2761,2583 3084,2659 3353,2813 L 3353,2645 4046,2645 4046,3958 3353,3958 3353,3716 C 3143,3392 2838,3229 2436,3229 2232,3229 2063,3274 1932,3363 1799,3451 1733,3569 1733,3716 1733,3866 1793,3969 1915,4025 2037,4081 2298,4140 2699,4203 3084,4262 3375,4333 3570,4413 3767,4494 3930,4627 4060,4814 4189,5001 4255,5218 4255,5468 4255,5835 4113,6128 3831,6345 3548,6562 3181,6671 2732,6671 2308,6671 1963,6574 1696,6382 L 1696,6605 1000,6605 1000,6604 Z"/>
      <rect fill="none" stroke="none" x="1000" y="2582" width="3256" height="4090"/>
     </g>
    </g>
    <g class="com.sun.star.drawing.ClosedBezierShape">
     <g>
      <path fill="rgb(120,162,47)" stroke="none" d="M 8991,4820 L 5659,4820 C 5708,5186 5852,5482 6093,5707 6333,5934 6640,6048 7014,6048 7557,6048 7986,5830 8303,5393 L 8991,5695 C 8767,6042 8476,6299 8119,6467 7762,6635 7387,6718 6997,6718 6392,6718 5873,6530 5444,6152 5014,5774 4799,5265 4799,4623 4799,4016 5008,3515 5427,3123 5846,2730 6327,2533 6870,2533 7403,2533 7885,2725 8318,3108 8751,3491 8974,4062 8991,4820 Z M 8189,4255 C 8133,3978 7990,3726 7755,3501 7520,3275 7232,3163 6890,3163 6579,3163 6314,3264 6093,3468 5872,3672 5736,3934 5687,4255 L 8189,4255 Z"/>
      <rect fill="none" stroke="none" x="4799" y="2533" width="4193" height="4186"/>
     </g>
    </g>
    <g class="com.sun.star.drawing.ClosedBezierShape">
     <g>
      <path fill="rgb(120,162,47)" stroke="none" d="M 13796,4907 L 10464,4907 C 10513,5273 10657,5569 10898,5794 11138,6021 11445,6135 11819,6135 12362,6135 12791,5917 13108,5480 L 13796,5783 C 13572,6129 13281,6386 12924,6554 12567,6722 12192,6805 11802,6805 11197,6805 10678,6617 10249,6239 9819,5861 9604,5352 9604,4710 9604,4103 9813,3602 10232,3209 10651,2817 11132,2620 11675,2620 12208,2620 12690,2812 13123,3195 13556,3578 13779,4149 13796,4907 Z M 12994,4342 C 12938,4065 12795,3813 12560,3587 12325,3362 12037,3250 11695,3250 11385,3250 11119,3351 10898,3555 10677,3759 10541,4021 10493,4342 L 12994,4342 Z"/>
      <rect fill="none" stroke="none" x="9603" y="2620" width="4194" height="4186"/>
     </g>
    </g>
    <g class="com.sun.star.drawing.ClosedBezierShape">
     <g>
      <path fill="rgb(120,162,47)" stroke="none" d="M 19327,6000 L 19327,6691 17836,6691 17836,6110 C 17449,6541 16977,6757 16420,6757 15904,6757 15452,6580 15062,6229 14672,5878 14476,5376 14476,4727 14476,4076 14677,3561 15077,3185 15478,2808 15931,2620 16437,2620 16972,2620 17438,2833 17836,3259 L 17836,1692 17075,1692 17075,1000 18614,1000 18614,6000 19327,6000 Z M 15307,4707 C 15307,5144 15430,5479 15677,5713 15924,5947 16220,6065 16564,6065 16897,6065 17192,5941 17450,5694 17708,5448 17836,5107 17836,4670 17836,4231 17705,3899 17442,3676 17178,3452 16883,3340 16555,3340 16203,3340 15908,3472 15667,3735 15426,3998 15307,4323 15307,4707 Z"/>
      <rect fill="none" stroke="none" x="14475" y="1000" width="4853" height="5758"/>
     </g>
    </g>
   </g>
   <g class="Group">
    <g class="com.sun.star.drawing.ClosedBezierShape">
     <g>
      <path fill="rgb(120,162,47)" stroke="none" d="M 20718,7689 L 20718,3336 20050,3336 20050,2645 21496,2645 21496,3266 C 21882,2811 22352,2583 22904,2583 23460,2583 23921,2774 24285,3156 24649,3538 24831,4034 24831,4645 24831,5286 24633,5792 24238,6163 23843,6534 23392,6719 22887,6719 22363,6719 21899,6518 21496,6113 L 21496,7689 22265,7689 22265,8380 19993,8380 19993,7689 20718,7689 Z M 21483,4682 C 21483,4900 21528,5109 21618,5308 21708,5507 21852,5674 22049,5809 22244,5944 22474,6011 22740,6011 23111,6011 23417,5888 23659,5639 23901,5390 24021,5050 24021,4616 24021,4194 23895,3864 23642,3627 23389,3390 23103,3270 22780,3270 22437,3270 22135,3400 21874,3657 21614,3915 21483,4257 21483,4682 Z"/>
      <rect fill="none" stroke="none" x="19992" y="2583" width="4840" height="5798"/>
     </g>
    </g>
    <g class="com.sun.star.drawing.ClosedBezierShape">
     <g>
      <path fill="rgb(120,162,47)" stroke="none" d="M 25494,4623 C 25494,4012 25696,3511 26100,3120 26503,2728 26997,2533 27578,2533 28147,2533 28637,2726 29048,3111 29457,3498 29661,4002 29661,4623 29661,5246 29457,5750 29049,6138 28641,6526 28151,6718 27578,6718 26988,6718 26493,6522 26094,6130 25694,5737 25494,5235 25494,4623 Z M 26317,4621 C 26317,5013 26439,5333 26683,5583 26928,5833 27226,5958 27578,5958 27935,5958 28235,5831 28477,5578 28717,5327 28839,5008 28839,4621 28839,4234 28716,3914 28470,3663 28224,3411 27927,3286 27578,3286 27212,3286 26910,3415 26673,3671 26436,3927 26317,4245 26317,4621 Z"/>
      <rect fill="none" stroke="none" x="25494" y="2533" width="4168" height="4186"/>
     </g>
    </g>
    <g class="com.sun.star.drawing.ClosedBezierShape">
     <g>
      <path fill="rgb(120,162,47)" stroke="none" d="M 35200,6000 L 35200,6691 33709,6691 33709,6110 C 33322,6541 32850,6757 32293,6757 31777,6757 31325,6580 30935,6229 30543,5877 30349,5376 30349,4727 30349,4076 30549,3561 30950,3185 31351,2809 31804,2620 32310,2620 32845,2620 33311,2833 33709,3259 L 33709,1692 32948,1692 32948,1000 34487,1000 34487,6000 35200,6000 Z M 31180,4707 C 31180,5144 31303,5479 31550,5713 31797,5947 32093,6065 32437,6065 32770,6065 33065,5941 33323,5694 33581,5448 33709,5107 33709,4670 33709,4231 33578,3899 33315,3676 33052,3453 32756,3340 32428,3340 32076,3340 31781,3472 31540,3735 31299,3998 31180,4323 31180,4707 Z"/>
      <rect fill="none" stroke="none" x="30348" y="1000" width="4853" height="5758"/>
     </g>
    </g>
   </g>
  </g>
 </g>
</svg>