<?xml version="1.0" encoding="UTF-8"?>

<svg version="1.2" baseProfile="tiny" viewBox="0 0 45000 11000" preserveAspectRatio="xMidYMid" fill-rule="evenodd" clip-path="url(#presentation_clip_path)" stroke-width="28.222" stroke-linejoin="round" xmlns="http://www.w3.org/2000/svg" xmlns:xlink="http://www.w3.org/1999/xlink" xmlns:draw="urn:oasis:names:tc:opendocument:xmlns:drawing:1.0" xmlns:presentation="urn:oasis:names:tc:opendocument:xmlns:presentation:1.0" xmlns:smil="urn:oasis:names:tc:opendocument:xmlns:smil-compatible:1.0" xmlns:anim="urn:oasis:names:tc:opendocument:xmlns:animation:1.0" xml:space="preserve">

<style>
  path {
    fill: rgb(120,162,47);
  }
</style>

 <defs>
  <clipPath id="presentation_clip_path" clipPathUnits="userSpaceOnUse">
   <rect x="0" y="0" width="45000" height="11000"/>
  </clipPath>
 </defs>
 <g id="id2" class="Master_Slide" clip-path="url(#presentation_clip_path)">
  <g id="bg-id2" visibility="visible" class="Background">
   <rect fill="none" stroke="none" x="0" y="0" width="45000" height="11000"/>
  </g>
  <g id="bo-id2" visibility="visible" class="BackgroundObjects"/>
 </g>
 <g id="id1" class="Slide" visibility="visible" clip-path="url(#presentation_clip_path)">
  <g class="com.sun.star.drawing.ClosedBezierShape">
   <g>
    <rect fill="none" stroke="none" x="308" y="3301" width="58" height="7"/>
   </g>
  </g>
  <g class="com.sun.star.drawing.ClosedBezierShape">
   <g>
    <rect fill="none" stroke="none" x="454" y="3289" width="61" height="5"/>
   </g>
  </g>
  <g class="com.sun.star.drawing.ClosedBezierShape">
   <g>
    <rect fill="none" stroke="none" x="166" y="3320" width="48" height="9"/>
   </g>
  </g>
  <g class="com.sun.star.drawing.ClosedBezierShape">
   <g>
    <rect fill="none" stroke="none" x="2154" y="59" width="147" height="38"/>
   </g>
  </g>
  <g class="com.sun.star.drawing.ClosedBezierShape">
   <g>
    <rect fill="none" stroke="none" x="600" y="3287" width="57" height="3"/>
   </g>
  </g>
  <g class="com.sun.star.drawing.ClosedBezierShape">
   <g>
    <rect fill="none" stroke="none" x="817" y="3294" width="21" height="3"/>
   </g>
  </g>
  <g class="com.sun.star.drawing.ClosedBezierShape">
   <g>
    <rect fill="none" stroke="none" x="1215" y="3350" width="39" height="9"/>
   </g>
  </g>
  <g class="com.sun.star.drawing.ClosedBezierShape">
   <g>
    <rect fill="none" stroke="none" x="1433" y="3404" width="44" height="14"/>
   </g>
  </g>
  <g class="com.sun.star.drawing.ClosedBezierShape">
   <g>
    <rect fill="none" stroke="none" x="1016" y="3315" width="49" height="8"/>
   </g>
  </g>
  <g class="com.sun.star.drawing.ClosedBezierShape">
   <g>
    <rect fill="none" stroke="none" x="9421" y="4506" width="6" height="5"/>
   </g>
  </g>
  <g class="com.sun.star.drawing.ClosedBezierShape">
   <g>
    <rect fill="none" stroke="none" x="1624" y="3467" width="47" height="18"/>
   </g>
  </g>
  <g class="com.sun.star.drawing.ClosedBezierShape">
   <g>
    <rect fill="none" stroke="none" x="1856" y="12" width="117" height="16"/>
   </g>
  </g>
  <g class="com.sun.star.drawing.ClosedBezierShape">
   <g>
    <rect fill="none" stroke="none" x="2006" y="32" width="144" height="28"/>
   </g>
  </g>
  <g class="com.sun.star.drawing.ClosedBezierShape">
   <g>
    <rect fill="none" stroke="none" x="3623" y="4389" width="348" height="1008"/>
   </g>
  </g>
  <g class="com.sun.star.drawing.ClosedBezierShape">
   <g>
    <rect fill="none" stroke="none" x="1702" y="0" width="90" height="8"/>
   </g>
  </g>
  <g class="com.sun.star.drawing.ClosedBezierShape">
   <g>
    <rect fill="none" stroke="none" x="2648" y="6333" width="94" height="7"/>
   </g>
  </g>
  <g class="com.sun.star.drawing.ClosedBezierShape">
   <g>
    <rect fill="none" stroke="none" x="2184" y="6302" width="72" height="13"/>
   </g>
  </g>
  <g class="com.sun.star.drawing.ClosedBezierShape">
   <g>
    <rect fill="none" stroke="none" x="2357" y="6326" width="69" height="9"/>
   </g>
  </g>
  <g class="com.sun.star.drawing.ClosedBezierShape">
   <g>
    <rect fill="none" stroke="none" x="3467" y="6038" width="116" height="75"/>
   </g>
  </g>
  <g class="com.sun.star.drawing.ClosedBezierShape">
   <g>
    <rect fill="none" stroke="none" x="2011" y="6262" width="74" height="20"/>
   </g>
  </g>
  <g class="com.sun.star.drawing.ClosedBezierShape">
   <g>
    <rect fill="none" stroke="none" x="1495" y="6065" width="67" height="33"/>
   </g>
  </g>
  <g class="com.sun.star.drawing.ClosedBezierShape">
   <g>
    <rect fill="none" stroke="none" x="1666" y="6144" width="71" height="30"/>
   </g>
  </g>
  <g class="com.sun.star.drawing.ClosedBezierShape">
   <g>
    <rect fill="none" stroke="none" x="1837" y="6211" width="74" height="24"/>
   </g>
  </g>
  <g class="com.sun.star.drawing.ClosedBezierShape">
   <g>
    <rect fill="none" stroke="none" x="3083" y="6248" width="80" height="25"/>
   </g>
  </g>
  <g class="com.sun.star.drawing.ClosedBezierShape">
   <g>
    <rect fill="none" stroke="none" x="2944" y="6287" width="82" height="18"/>
   </g>
  </g>
  <g class="com.sun.star.drawing.ClosedBezierShape">
   <g>
    <rect fill="none" stroke="none" x="3217" y="6198" width="79" height="33"/>
   </g>
  </g>
  <g class="com.sun.star.drawing.ClosedBezierShape">
   <g>
    <rect fill="none" stroke="none" x="2800" y="6316" width="86" height="13"/>
   </g>
  </g>
  <g class="com.sun.star.drawing.ClosedBezierShape">
   <g>
    <rect fill="none" stroke="none" x="2531" y="6338" width="63" height="3"/>
   </g>
  </g>
  <g class="com.sun.star.drawing.ClosedBezierShape">
   <g>
    <rect fill="none" stroke="none" x="3345" y="6134" width="84" height="43"/>
   </g>
  </g>
  <g class="com.sun.star.drawing.OpenBezierShape">
   <g>
    <path fill="none" stroke="rgb(255,255,255)" d="M 4369,6130 C 4375,6133 4379,6136 4383,6137"/>
   </g>
  </g>
  <g class="com.sun.star.drawing.OpenBezierShape">
   <g>
    <path fill="none" stroke="rgb(255,255,255)" d="M 4384,6136 C 4385,6137 4385,6137 4386,6139"/>
   </g>
  </g>
  <g class="Group">
   <g class="com.sun.star.drawing.ClosedBezierShape">
    <g>
     <path fill="rgb(120,162,47)" stroke="none" d="M 4186,3217 L 4211,3197 C 4267,3155 4359,3155 4415,3197 L 4577,3322 C 4708,3215 4853,3123 5007,3045 L 4444,2616 C 4371,2561 4254,2561 4182,2616 L 4180,2618 4180,2618 C 4205,2819 4207,3020 4186,3217 Z"/>
     <rect fill="none" stroke="none" x="4180" y="2575" width="828" height="749"/>
    </g>
   </g>
   <g class="com.sun.star.drawing.ClosedBezierShape">
    <g>
     <path fill="rgb(120,162,47)" stroke="none" d="M 6918,4950 C 6883,4978 6849,5003 6815,5028 L 6971,5148 C 6981,5156 6988,5164 6995,5173 7025,5215 7018,5268 6971,5303 L 4415,7253 C 4360,7296 4268,7296 4212,7253 L 1656,5303 C 1609,5268 1602,5215 1632,5173 1639,5164 1647,5156 1656,5148 L 1719,5100 C 1661,5068 1603,5033 1547,4993 1464,4936 1387,4873 1314,4806 L 894,5126 C 870,5144 855,5165 847,5188 828,5200 816,5216 816,5235 L 816,9939 C 816,9968 845,9992 885,9998 887,9995 890,9993 894,9990 L 3950,7658 4183,7480 C 4255,7425 4372,7425 4445,7480 L 4677,7658 7734,9990 C 7737,9992 7738,9995 7741,9997 7775,9988 7800,9965 7800,9939 L 7800,5235 C 7800,5222 7795,5210 7785,5200 7778,5173 7761,5147 7734,5126 L 7185,4707 C 7102,4793 7013,4874 6918,4950 Z"/>
     <rect fill="none" stroke="none" x="816" y="4707" width="6985" height="5292"/>
    </g>
   </g>
   <g class="com.sun.star.drawing.ClosedBezierShape">
    <g>
     <path fill="rgb(120,162,47)" stroke="none" d="M 4392,7863 C 4343,7840 4284,7840 4235,7863 4224,7868 4212,7873 4202,7880 L 1425,10000 7202,10000 4424,7880 C 4414,7873 4403,7868 4392,7863 Z"/>
     <rect fill="none" stroke="none" x="1425" y="7846" width="5778" height="2156"/>
    </g>
   </g>
   <g class="com.sun.star.drawing.ClosedBezierShape">
    <g>
     <path fill="rgb(120,162,47)" stroke="none" d="M 4660,6802 C 4649,6789 4637,6775 4626,6761 4620,6753 4612,6744 4606,6736 4595,6721 4584,6707 4573,6693 4567,6684 4561,6676 4555,6668 4543,6651 4532,6634 4520,6617 4516,6610 4511,6604 4507,6596 4492,6573 4477,6549 4462,6524 4460,6520 4458,6516 4456,6512 4444,6491 4432,6470 4421,6449 4417,6439 4412,6431 4408,6422 4400,6405 4391,6388 4383,6371 4379,6360 4374,6350 4370,6340 4362,6323 4355,6307 4349,6290 4344,6279 4340,6269 4336,6257 4330,6241 4323,6223 4317,6206 4313,6195 4310,6185 4306,6174 4300,6155 4294,6136 4288,6117 4286,6107 4283,6098 4280,6089 4272,6060 4265,6032 4258,6002 4253,5979 4250,5957 4245,5936 4231,5858 4221,5782 4216,5705 4206,5534 4219,5365 4254,5203 L 4254,5202 C 4348,5239 4445,5271 4543,5298 4755,5354 4977,5384 5207,5384 5815,5384 6373,5173 6814,4821 6939,4721 7056,4610 7160,4488 7228,4410 7291,4329 7348,4244 7349,4244 7349,4244 7350,4244 L 7350,4244 C 7349,4244 7349,4244 7348,4243 7395,4174 7438,4101 7478,4027 7502,3982 7524,3937 7545,3891 7542,3889 7540,3887 7540,3887 L 7541,3888 C 7540,3887 7542,3888 7545,3891 7613,3741 7667,3582 7705,3419 7310,3115 6787,2929 6214,2929 5424,2929 4730,3282 4332,3813 4596,3575 4946,3430 5329,3430 5387,3430 5445,3433 5501,3440 4762,3644 4208,4201 3980,4886 3963,4938 3948,4991 3934,5045 3939,5048 3942,5050 3944,5051 3945,5052 3945,5052 3945,5053 3945,5054 3947,5054 3947,5054 L 3947,5054 C 3947,5054 3945,5053 3944,5053 L 3943,5053 C 3940,5051 3938,5050 3933,5048 3914,5125 3898,5205 3888,5286 3853,5542 3861,5810 3922,6078 3930,6113 3938,6148 3948,6182 3951,6194 3955,6204 3958,6216 3965,6239 3972,6262 3979,6284 3983,6297 3988,6310 3993,6323 4000,6344 4007,6364 4015,6384 4020,6398 4025,6411 4030,6424 4038,6444 4046,6464 4055,6483 4060,6496 4066,6508 4072,6521 4081,6541 4091,6561 4100,6581 4106,6592 4112,6603 4118,6614 4130,6639 4143,6662 4157,6686 4160,6692 4163,6699 4167,6704 4184,6734 4202,6763 4220,6791 4225,6801 4232,6809 4237,6819 4250,6838 4263,6857 4277,6876 4285,6887 4292,6897 4300,6908 4312,6925 4325,6941 4338,6958 4347,6968 4355,6980 4364,6991 4372,7001 4381,7011 4390,7021 L 4665,6807 C 4663,6805 4662,6804 4660,6802 Z"/>
     <rect fill="none" stroke="none" x="3867" y="2929" width="3839" height="4093"/>
    </g>
   </g>
   <g class="com.sun.star.drawing.ClosedBezierShape">
    <g>
     <path fill="rgb(120,162,47)" stroke="none" d="M 3258,3923 C 3310,3943 3363,3960 3417,3976 3496,3803 3546,3600 3553,3382 3555,3313 3553,3246 3546,3180 3734,3393 3832,3701 3794,4022 3999,3615 4091,3136 4028,2640 3909,1694 3265,962 2456,739 2422,729 2387,720 2352,713 2350,712 2349,712 2348,712 2314,705 2280,698 2246,693 2237,691 2230,691 2222,689 2194,685 2167,681 2139,679 2123,677 2108,676 2092,675 2071,673 2050,671 2029,670 2042,734 2053,799 2062,864 2085,1048 2086,1230 2069,1406 2012,1570 1975,1742 1962,1918 1952,2048 1955,2181 1972,2314 2007,2593 2099,2849 2235,3075 2330,3119 2424,3170 2515,3227 2809,3411 3062,3649 3258,3923 Z"/>
     <rect fill="none" stroke="none" x="1956" y="670" width="2093" height="3353"/>
    </g>
   </g>
   <g class="com.sun.star.drawing.ClosedBezierShape">
    <g>
     <path fill="rgb(120,162,47)" stroke="none" d="M 1882,5001 C 1898,5010 1914,5017 1930,5024 1955,5036 1979,5047 2005,5058 2021,5065 2038,5072 2055,5078 2079,5088 2103,5097 2127,5105 2145,5111 2162,5117 2179,5122 2203,5129 2227,5136 2250,5142 2268,5147 2285,5152 2302,5155 2327,5161 2350,5166 2374,5170 2391,5173 2408,5177 2425,5179 2449,5183 2473,5185 2497,5188 2514,5189 2530,5192 2546,5193 2572,5195 2597,5195 2622,5196 2637,5197 2652,5197 2667,5197 2679,5197 2693,5197 2706,5196 2728,5195 2749,5194 2772,5192 2786,5192 2799,5189 2814,5188 2834,5186 2854,5183 2874,5180 2889,5178 2903,5175 2917,5172 2936,5169 2956,5164 2975,5160 2989,5157 3003,5153 3016,5149 3035,5144 3054,5138 3073,5132 3086,5127 3099,5123 3112,5119 3131,5112 3149,5104 3168,5096 3179,5091 3191,5086 3204,5080 3224,5071 3243,5061 3261,5050 3271,5045 3281,5040 3291,5035 3319,5019 3346,5001 3373,4982 3436,5163 3527,5330 3643,5474 3636,5387 3631,5299 3631,5210 3631,5107 3636,5006 3646,4906 3567,4807 3494,4702 3429,4594 3258,4116 2911,3670 2429,3368 2387,3341 2344,3317 2302,3294 2290,3287 2279,3281 2267,3275 2230,3256 2194,3238 2157,3221 2150,3217 2143,3214 2137,3211 2093,3192 2050,3174 2007,3158 1996,3154 1985,3150 1975,3146 1939,3133 1904,3122 1868,3110 1858,3107 1848,3104 1838,3102 1795,3089 1752,3077 1709,3068 1700,3066 1691,3064 1682,3062 1646,3054 1610,3048 1575,3042 1563,3041 1552,3039 1541,3037 1497,3032 1455,3027 1412,3023 1408,3023 1403,3022 1398,3022 1359,3019 1321,3019 1283,3018 1270,3018 1257,3018 1244,3018 1223,3018 1202,3019 1181,3020 1167,3020 1153,3021 1138,3022 1117,3024 1096,3026 1075,3028 1062,3029 1048,3030 1035,3032 1012,3034 989,3039 967,3042 955,3044 945,3045 933,3047 900,3054 867,3061 834,3069 691,3672 1008,4414 1643,4858 1721,4912 1801,4960 1882,5001 Z"/>
     <rect fill="none" stroke="none" x="800" y="3018" width="2847" height="2457"/>
    </g>
   </g>
  </g>
  <g class="Group">
   <g class="Group">
    <g class="com.sun.star.drawing.ClosedBezierShape">
     <g>
      <path fill="rgb(120,162,47)" stroke="none" d="M 9900,8224 L 9900,6866 10596,6866 10596,6998 C 10620,7183 10720,7336 10897,7456 11072,7576 11281,7636 11521,7636 11772,7636 11972,7592 12123,7504 12272,7418 12348,7297 12348,7140 12348,6991 12286,6880 12161,6809 12038,6738 11791,6673 11423,6614 10877,6521 10487,6372 10254,6167 10020,5960 9904,5694 9904,5366 9904,5035 10030,4759 10284,4537 10538,4315 10873,4203 11288,4203 11661,4203 11984,4279 12253,4433 L 12253,4265 12946,4265 12946,5578 12253,5578 12253,5336 C 12043,5012 11738,4849 11336,4849 11132,4849 10963,4894 10832,4983 10699,5071 10633,5189 10633,5336 10633,5486 10693,5589 10815,5645 10937,5701 11198,5760 11599,5823 11984,5882 12275,5953 12470,6033 12667,6114 12830,6247 12960,6434 13089,6621 13155,6838 13155,7088 13155,7455 13013,7748 12731,7965 12448,8182 12081,8291 11632,8291 11208,8291 10863,8194 10596,8002 L 10596,8225 9900,8225 9900,8224 Z"/>
      <rect fill="none" stroke="none" x="9900" y="4202" width="3256" height="4090"/>
     </g>
    </g>
    <g class="com.sun.star.drawing.ClosedBezierShape">
     <g>
      <path fill="rgb(120,162,47)" stroke="none" d="M 17891,6440 L 14559,6440 C 14608,6806 14752,7102 14993,7327 15233,7554 15540,7668 15914,7668 16457,7668 16886,7450 17203,7013 L 17891,7315 C 17667,7662 17376,7919 17019,8087 16662,8255 16287,8338 15897,8338 15292,8338 14773,8150 14344,7772 13914,7394 13699,6885 13699,6243 13699,5636 13908,5135 14327,4743 14746,4350 15227,4153 15770,4153 16303,4153 16785,4345 17218,4728 17651,5111 17874,5682 17891,6440 Z M 17089,5875 C 17033,5598 16890,5346 16655,5121 16420,4895 16132,4783 15790,4783 15479,4783 15214,4884 14993,5088 14772,5292 14636,5554 14587,5875 L 17089,5875 Z"/>
      <rect fill="none" stroke="none" x="13699" y="4152" width="4193" height="4187"/>
     </g>
    </g>
    <g class="com.sun.star.drawing.ClosedBezierShape">
     <g>
      <path fill="rgb(120,162,47)" stroke="none" d="M 22696,6527 L 19364,6527 C 19413,6893 19557,7189 19798,7414 20038,7641 20345,7755 20719,7755 21262,7755 21691,7537 22008,7100 L 22696,7403 C 22472,7749 22181,8006 21824,8174 21467,8342 21092,8425 20702,8425 20097,8425 19578,8237 19149,7859 18719,7481 18504,6972 18504,6330 18504,5723 18713,5222 19132,4829 19551,4437 20032,4240 20575,4240 21108,4240 21590,4432 22023,4815 22456,5198 22679,5769 22696,6527 Z M 21894,5962 C 21838,5685 21695,5433 21460,5207 21225,4982 20937,4870 20595,4870 20285,4870 20019,4971 19798,5175 19577,5379 19441,5641 19393,5962 L 21894,5962 Z"/>
      <rect fill="none" stroke="none" x="18504" y="4239" width="4193" height="4187"/>
     </g>
    </g>
    <g class="com.sun.star.drawing.ClosedBezierShape">
     <g>
      <path fill="rgb(120,162,47)" stroke="none" d="M 28227,7620 L 28227,8311 26736,8311 26736,7730 C 26349,8161 25877,8377 25320,8377 24804,8377 24352,8200 23962,7849 23572,7498 23376,6996 23376,6347 23376,5696 23577,5181 23977,4805 24378,4428 24831,4240 25337,4240 25872,4240 26338,4453 26736,4879 L 26736,3312 25975,3312 25975,2620 27514,2620 27514,7620 28227,7620 Z M 24207,6327 C 24207,6764 24330,7099 24577,7333 24824,7567 25120,7685 25464,7685 25797,7685 26092,7561 26350,7314 26608,7068 26736,6727 26736,6290 26736,5851 26605,5519 26342,5296 26078,5072 25783,4960 25455,4960 25103,4960 24808,5092 24567,5355 24326,5618 24207,5943 24207,6327 Z"/>
      <rect fill="none" stroke="none" x="23376" y="2620" width="4852" height="5758"/>
     </g>
    </g>
   </g>
   <g class="Group">
    <g class="com.sun.star.drawing.ClosedBezierShape">
     <g>
      <path fill="rgb(120,162,47)" stroke="none" d="M 29618,9309 L 29618,4956 28950,4956 28950,4265 30396,4265 30396,4886 C 30782,4431 31252,4203 31804,4203 32360,4203 32821,4394 33185,4776 33549,5158 33731,5654 33731,6265 33731,6906 33533,7412 33138,7783 32743,8154 32292,8339 31787,8339 31263,8339 30799,8138 30396,7733 L 30396,9309 31165,9309 31165,10000 28893,10000 28893,9309 29618,9309 Z M 30383,6302 C 30383,6520 30428,6729 30518,6928 30608,7127 30752,7294 30949,7429 31144,7564 31374,7631 31640,7631 32011,7631 32317,7508 32559,7259 32801,7010 32921,6670 32921,6236 32921,5814 32795,5484 32542,5247 32289,5010 32003,4890 31680,4890 31337,4890 31035,5020 30774,5277 30514,5535 30383,5877 30383,6302 Z"/>
      <rect fill="none" stroke="none" x="28893" y="4203" width="4839" height="5798"/>
     </g>
    </g>
    <g class="com.sun.star.drawing.ClosedBezierShape">
     <g>
      <path fill="rgb(120,162,47)" stroke="none" d="M 34394,6243 C 34394,5632 34596,5131 35000,4740 35403,4348 35897,4153 36478,4153 37047,4153 37537,4346 37948,4731 38357,5118 38561,5622 38561,6243 38561,6866 38357,7370 37949,7758 37541,8146 37051,8338 36478,8338 35888,8338 35393,8142 34994,7750 34594,7357 34394,6855 34394,6243 Z M 35217,6241 C 35217,6633 35339,6953 35583,7203 35828,7453 36126,7578 36478,7578 36835,7578 37135,7451 37377,7198 37617,6947 37739,6628 37739,6241 37739,5854 37616,5534 37370,5283 37124,5031 36827,4906 36478,4906 36112,4906 35810,5035 35573,5291 35336,5547 35217,5865 35217,6241 Z"/>
      <rect fill="none" stroke="none" x="34394" y="4152" width="4168" height="4187"/>
     </g>
    </g>
    <g class="com.sun.star.drawing.ClosedBezierShape">
     <g>
      <path fill="rgb(120,162,47)" stroke="none" d="M 44100,7620 L 44100,8311 42609,8311 42609,7730 C 42222,8161 41750,8377 41193,8377 40677,8377 40225,8200 39835,7849 39443,7497 39249,6996 39249,6347 39249,5696 39449,5181 39850,4805 40251,4429 40704,4240 41210,4240 41745,4240 42211,4453 42609,4879 L 42609,3312 41848,3312 41848,2620 43387,2620 43387,7620 44100,7620 Z M 40080,6327 C 40080,6764 40203,7099 40450,7333 40697,7567 40993,7685 41337,7685 41670,7685 41965,7561 42223,7314 42481,7068 42609,6727 42609,6290 42609,5851 42478,5519 42215,5296 41952,5073 41656,4960 41328,4960 40976,4960 40681,5092 40440,5355 40199,5618 40080,5943 40080,6327 Z"/>
      <rect fill="none" stroke="none" x="39248" y="2620" width="4853" height="5758"/>
     </g>
    </g>
   </g>
  </g>
 </g>
</svg>